<svg xmlns="http://www.w3.org/2000/svg" xmlns:xlink="http://www.w3.org/1999/xlink" width="122" height="32" viewBox="0 0 122 32">
    <defs>
        <path id="a" d="M.204.205H14.93v31.752H.204z"/>
        <path id="c" d="M.016.034h13.887V31H.016z"/>
        <path id="e" d="M.065.034h13.909V31H.065z"/>
        <path id="g" d="M.15.205h14.81v31.752H.15z"/>
    </defs>
    <g fill="none" fill-rule="evenodd">
        <path fill="#FFF" d="M-249-46h1440V59H-249z"/>
        <path fill="#000" d="M4.074 17.456v9.59h2.08c1.041 0 1.995-.084 2.688-.757.65-.63 1.04-1.809 1.04-3.996 0-2.23-.433-3.449-1.083-4.122-.694-.631-1.604-.715-2.644-.715h-2.08zm0-13.502v9.548h2.08c.911 0 1.605-.126 1.995-.337.39-.21.693-.378.823-.588.607-.715.91-1.977.91-3.87 0-2.187-.39-3.365-1.04-4.038-.693-.631-1.647-.715-2.687-.715h-2.08zM0 31V0h6.155c2.73 0 4.724.8 5.981 2.355C13.393 3.744 14 5.89 14 8.707c0 2.818-.607 4.921-1.864 6.393-.043.085-.173.21-.346.38.173.167.303.294.346.42C13.393 17.372 14 19.475 14 22.293c0 2.818-.607 4.964-1.864 6.352C10.836 30.2 8.842 31 6.155 31H0z"/>
        <g transform="translate(17)">
            <mask id="b" fill="#fff">
                <use xlink:href="#a"/>
            </mask>
            <path fill="#000" d="M4.159 22.91c0 2.541.547 3.748 1.262 4.35.715.604 1.515.647 2.146.647.547 0 1.43-.043 2.145-.646.716-.603 1.263-1.81 1.263-4.351V9.252c0-2.455-.547-3.748-1.263-4.35-.715-.604-1.598-.604-2.145-.604-.631 0-1.43 0-2.146.603-.715.603-1.262 1.896-1.262 4.351V22.91zM.204 9.252c0-2.8.59-4.997 1.767-6.548a6.996 6.996 0 0 1 2.02-1.68c.925-.475 2.061-.82 3.576-.82 3.029 0 4.712 1.337 5.595 2.5 1.179 1.55 1.768 3.748 1.768 6.548V22.91c0 2.8-.59 4.997-1.768 6.548-.883 1.163-2.566 2.499-5.595 2.499-2.987 0-4.712-1.336-5.596-2.499C.793 27.908.204 25.71.204 22.91V9.252z" mask="url(#b)"/>
        </g>
        <path fill="#000" d="M39.123 13.754h2.587c1.097 0 1.886-.126 2.325-.378.395-.252.658-.463.79-.59.657-.798.964-2.102.964-3.953 0-2.06-.35-3.28-1.008-3.996-.702-.673-1.71-.841-3.07-.841h-2.588v9.758zM50 31h-4.167v-9.17c0-2.734-1.36-4.08-4.123-4.08h-2.587V31H35V0h6.71c5.57 0 8.202 3.07 8.202 8.833 0 2.86-.658 5.048-1.93 6.52-.043.042-.131.126-.175.21-.088.084-.176.168-.263.21C49.123 17.246 50 19.265 50 21.83V31z"/>
        <g transform="translate(54)">
            <mask id="d" fill="#fff">
                <use xlink:href="#c"/>
            </mask>
            <path fill="#000" d="M3.924 3.983V27.05h2.204c.998 0 1.954-.125 2.66-.798.666-.672 1.165-1.933 1.165-4.244V8.983c0-2.31-.499-3.571-1.164-4.243-.707-.673-1.663-.757-2.661-.757H3.924zM.016 31V.034h6.112c5.28 0 7.775 3.277 7.775 8.95v13.024c0 5.673-2.495 8.992-7.775 8.992H.016z" mask="url(#d)"/>
        </g>
        <g transform="translate(72)">
            <mask id="f" fill="#fff">
                <use xlink:href="#e"/>
            </mask>
            <path fill="#000" d="M13.974.034v3.95H4.352v9.537h9.622v3.95H4.352v9.58h9.622V31H.065V.034z" mask="url(#f)"/>
        </g>
        <path fill="#000" d="M92.123 13.754h2.587c1.097 0 1.886-.126 2.325-.378.395-.252.658-.463.79-.59.657-.798.964-2.102.964-3.953 0-2.06-.35-3.28-1.008-3.996-.702-.673-1.71-.841-3.07-.841h-2.588v9.758zM103 31h-4.167v-9.17c0-2.734-1.36-4.08-4.123-4.08h-2.587V31H88V0h6.71c5.57 0 8.202 3.07 8.202 8.833 0 2.86-.658 5.048-1.93 6.52-.043.042-.131.126-.175.21-.088.084-.176.168-.263.21 1.579 1.473 2.456 3.492 2.456 6.057V31z"/>
        <g transform="translate(107)">
            <mask id="h" fill="#fff">
                <use xlink:href="#g"/>
            </mask>
            <path fill="#000" d="M.15 20.928h3.955v2.025c0 1.852.337 3.188.968 4.006.126.216.378.388.757.604.379.215.926.344 1.725.344 1.515 0 2.356-.775 2.86-1.723.464-.948.548-2.154.548-3.016 0-1.508-.505-2.499-1.22-3.231-.716-.69-1.683-1.164-2.567-1.551l-.757-.345c-.883-.388-2.398-1.034-3.744-2.37C.992 13.992.15 11.882.15 9.296c0-2.714.716-4.997 2.062-6.591 1.304-1.551 3.155-2.5 5.343-2.5 3.03 0 4.712 1.337 5.596 2.5 1.22 1.594 1.809 3.791 1.809 6.591v2.025h-3.997V9.295c0-2.455-.547-3.79-1.262-4.394-.716-.603-1.599-.603-2.146-.603-1.64 0-2.44.904-2.903 2.025-.505 1.12-.547 2.412-.547 2.972 0 1.508.505 2.5 1.22 3.275.715.775 1.683 1.335 2.693 1.723l.673.301c.8.345 2.314.905 3.66 2.24 1.725 1.638 2.609 3.75 2.609 6.334 0 4.868-2.65 8.789-7.405 8.789-4.923 0-7.405-3.318-7.405-9.004v-2.025z" mask="url(#h)"/>
        </g>
    </g>
</svg>
